<svg xmlns="http://www.w3.org/2000/svg" xmlns:xlink="http://www.w3.org/1999/xlink" width="2000" zoomAndPan="magnify" viewBox="0 0 1500 1499.999933" height="2000" preserveAspectRatio="xMidYMid meet" version="1.0"><defs><filter x="0%" y="0%" width="100%" height="100%" id="96bc21e0e2"><feColorMatrix values="0 0 0 0 1 0 0 0 0 1 0 0 0 0 1 0 0 0 1 0" color-interpolation-filters="sRGB"/></filter><g/><clipPath id="65cf21dd24"><path d="M 30 30 L 1470.839844 30 L 1470.839844 1471 L 30 1471 Z M 30 30 " clip-rule="nonzero"/></clipPath><clipPath id="1e3379f19f"><path d="M 1470.839844 105.972656 L 1470.839844 1395.910156 C 1470.839844 1415.800781 1462.9375 1434.878906 1448.875 1448.941406 C 1434.808594 1463.007812 1415.734375 1470.910156 1395.84375 1470.910156 L 105.972656 1470.910156 C 86.082031 1470.910156 67.007812 1463.007812 52.941406 1448.941406 C 38.878906 1434.878906 30.976562 1415.800781 30.976562 1395.910156 L 30.976562 105.972656 C 30.976562 86.082031 38.878906 67.007812 52.941406 52.941406 C 67.007812 38.878906 86.082031 30.976562 105.972656 30.976562 L 1395.84375 30.976562 C 1415.734375 30.976562 1434.808594 38.878906 1448.875 52.941406 C 1462.9375 67.007812 1470.839844 86.082031 1470.839844 105.972656 Z M 1470.839844 105.972656 " clip-rule="nonzero"/></clipPath><clipPath id="2213077e99"><path d="M 0.960938 0.960938 L 1440.839844 0.960938 L 1440.839844 1440.960938 L 0.960938 1440.960938 Z M 0.960938 0.960938 " clip-rule="nonzero"/></clipPath><clipPath id="68336b3d1e"><path d="M 1440.839844 75.972656 L 1440.839844 1365.910156 C 1440.839844 1385.800781 1432.9375 1404.878906 1418.875 1418.941406 C 1404.808594 1433.007812 1385.734375 1440.910156 1365.84375 1440.910156 L 75.972656 1440.910156 C 56.082031 1440.910156 37.007812 1433.007812 22.941406 1418.941406 C 8.878906 1404.878906 0.976562 1385.800781 0.976562 1365.910156 L 0.976562 75.972656 C 0.976562 56.082031 8.878906 37.007812 22.941406 22.941406 C 37.007812 8.878906 56.082031 0.976562 75.972656 0.976562 L 1365.84375 0.976562 C 1385.734375 0.976562 1404.808594 8.878906 1418.875 22.941406 C 1432.9375 37.007812 1440.839844 56.082031 1440.839844 75.972656 Z M 1440.839844 75.972656 " clip-rule="nonzero"/></clipPath><clipPath id="a555481003"><rect x="0" width="1441" y="0" height="1441"/></clipPath><clipPath id="a1a6f7286f"><path d="M 0 0 L 1500 0 L 1500 1500 L 0 1500 Z M 0 0 " clip-rule="nonzero"/></clipPath><linearGradient x1="3.647149" gradientTransform="matrix(2.362869, 0, 0, 2.363376, -8.6177, 216.644493)" y1="211.5" x2="638.468702" gradientUnits="userSpaceOnUse" y2="211.5" id="8146991ea4"><stop stop-opacity="1" stop-color="rgb(0%, 59.21936%, 69.799805%)" offset="0"/><stop stop-opacity="1" stop-color="rgb(0.0610352%, 59.251404%, 69.755554%)" offset="0.03125"/><stop stop-opacity="1" stop-color="rgb(0.340271%, 59.397888%, 69.552612%)" offset="0.0351562"/><stop stop-opacity="1" stop-color="rgb(0.558472%, 59.512329%, 69.395447%)" offset="0.0390625"/><stop stop-opacity="1" stop-color="rgb(0.776672%, 59.62677%, 69.236755%)" offset="0.0429687"/><stop stop-opacity="1" stop-color="rgb(0.996399%, 59.741211%, 69.07959%)" offset="0.046875"/><stop stop-opacity="1" stop-color="rgb(1.2146%, 59.855652%, 68.920898%)" offset="0.0507812"/><stop stop-opacity="1" stop-color="rgb(1.4328%, 59.970093%, 68.763733%)" offset="0.0546875"/><stop stop-opacity="1" stop-color="rgb(1.651001%, 60.084534%, 68.605042%)" offset="0.0585938"/><stop stop-opacity="1" stop-color="rgb(1.870728%, 60.198975%, 68.447876%)" offset="0.0625"/><stop stop-opacity="1" stop-color="rgb(2.088928%, 60.313416%, 68.289185%)" offset="0.0664062"/><stop stop-opacity="1" stop-color="rgb(2.307129%, 60.427856%, 68.132019%)" offset="0.0703125"/><stop stop-opacity="1" stop-color="rgb(2.52533%, 60.542297%, 67.973328%)" offset="0.0742187"/><stop stop-opacity="1" stop-color="rgb(2.745056%, 60.656738%, 67.816162%)" offset="0.078125"/><stop stop-opacity="1" stop-color="rgb(2.963257%, 60.771179%, 67.658997%)" offset="0.0820312"/><stop stop-opacity="1" stop-color="rgb(3.181458%, 60.88562%, 67.501831%)" offset="0.0859375"/><stop stop-opacity="1" stop-color="rgb(3.399658%, 61.000061%, 67.34314%)" offset="0.0898437"/><stop stop-opacity="1" stop-color="rgb(3.619385%, 61.114502%, 67.185974%)" offset="0.09375"/><stop stop-opacity="1" stop-color="rgb(3.837585%, 61.228943%, 67.027283%)" offset="0.0976562"/><stop stop-opacity="1" stop-color="rgb(4.055786%, 61.343384%, 66.870117%)" offset="0.101562"/><stop stop-opacity="1" stop-color="rgb(4.273987%, 61.457825%, 66.711426%)" offset="0.105469"/><stop stop-opacity="1" stop-color="rgb(4.492188%, 61.572266%, 66.55426%)" offset="0.109375"/><stop stop-opacity="1" stop-color="rgb(4.710388%, 61.686707%, 66.395569%)" offset="0.113281"/><stop stop-opacity="1" stop-color="rgb(4.930115%, 61.801147%, 66.238403%)" offset="0.117188"/><stop stop-opacity="1" stop-color="rgb(5.148315%, 61.915588%, 66.079712%)" offset="0.121094"/><stop stop-opacity="1" stop-color="rgb(5.366516%, 62.031555%, 65.922546%)" offset="0.125"/><stop stop-opacity="1" stop-color="rgb(5.584717%, 62.145996%, 65.763855%)" offset="0.128906"/><stop stop-opacity="1" stop-color="rgb(5.804443%, 62.260437%, 65.606689%)" offset="0.132812"/><stop stop-opacity="1" stop-color="rgb(6.022644%, 62.374878%, 65.449524%)" offset="0.136719"/><stop stop-opacity="1" stop-color="rgb(6.240845%, 62.489319%, 65.292358%)" offset="0.140625"/><stop stop-opacity="1" stop-color="rgb(6.459045%, 62.60376%, 65.133667%)" offset="0.144531"/><stop stop-opacity="1" stop-color="rgb(6.678772%, 62.718201%, 64.976501%)" offset="0.148438"/><stop stop-opacity="1" stop-color="rgb(6.896973%, 62.832642%, 64.81781%)" offset="0.152344"/><stop stop-opacity="1" stop-color="rgb(7.115173%, 62.947083%, 64.660645%)" offset="0.15625"/><stop stop-opacity="1" stop-color="rgb(7.333374%, 63.061523%, 64.501953%)" offset="0.160156"/><stop stop-opacity="1" stop-color="rgb(7.553101%, 63.175964%, 64.344788%)" offset="0.164062"/><stop stop-opacity="1" stop-color="rgb(7.771301%, 63.290405%, 64.186096%)" offset="0.167969"/><stop stop-opacity="1" stop-color="rgb(7.989502%, 63.404846%, 64.028931%)" offset="0.171875"/><stop stop-opacity="1" stop-color="rgb(8.207703%, 63.519287%, 63.870239%)" offset="0.175781"/><stop stop-opacity="1" stop-color="rgb(8.427429%, 63.633728%, 63.713074%)" offset="0.179688"/><stop stop-opacity="1" stop-color="rgb(8.64563%, 63.748169%, 63.554382%)" offset="0.183594"/><stop stop-opacity="1" stop-color="rgb(8.863831%, 63.86261%, 63.397217%)" offset="0.1875"/><stop stop-opacity="1" stop-color="rgb(9.082031%, 63.977051%, 63.240051%)" offset="0.191406"/><stop stop-opacity="1" stop-color="rgb(9.301758%, 64.091492%, 63.082886%)" offset="0.195312"/><stop stop-opacity="1" stop-color="rgb(9.519958%, 64.205933%, 62.924194%)" offset="0.199219"/><stop stop-opacity="1" stop-color="rgb(9.738159%, 64.320374%, 62.767029%)" offset="0.203125"/><stop stop-opacity="1" stop-color="rgb(9.95636%, 64.434814%, 62.608337%)" offset="0.207031"/><stop stop-opacity="1" stop-color="rgb(10.174561%, 64.549255%, 62.451172%)" offset="0.210938"/><stop stop-opacity="1" stop-color="rgb(10.392761%, 64.663696%, 62.29248%)" offset="0.214844"/><stop stop-opacity="1" stop-color="rgb(10.612488%, 64.778137%, 62.135315%)" offset="0.21875"/><stop stop-opacity="1" stop-color="rgb(10.830688%, 64.892578%, 61.976624%)" offset="0.222656"/><stop stop-opacity="1" stop-color="rgb(11.048889%, 65.007019%, 61.819458%)" offset="0.226562"/><stop stop-opacity="1" stop-color="rgb(11.26709%, 65.12146%, 61.660767%)" offset="0.230469"/><stop stop-opacity="1" stop-color="rgb(11.486816%, 65.235901%, 61.503601%)" offset="0.234375"/><stop stop-opacity="1" stop-color="rgb(11.705017%, 65.350342%, 61.34491%)" offset="0.238281"/><stop stop-opacity="1" stop-color="rgb(11.923218%, 65.464783%, 61.187744%)" offset="0.242188"/><stop stop-opacity="1" stop-color="rgb(12.141418%, 65.579224%, 61.030579%)" offset="0.246094"/><stop stop-opacity="1" stop-color="rgb(12.361145%, 65.693665%, 60.873413%)" offset="0.25"/><stop stop-opacity="1" stop-color="rgb(12.579346%, 65.808105%, 60.714722%)" offset="0.253906"/><stop stop-opacity="1" stop-color="rgb(12.797546%, 65.922546%, 60.557556%)" offset="0.257812"/><stop stop-opacity="1" stop-color="rgb(13.015747%, 66.036987%, 60.398865%)" offset="0.261719"/><stop stop-opacity="1" stop-color="rgb(13.235474%, 66.151428%, 60.241699%)" offset="0.265625"/><stop stop-opacity="1" stop-color="rgb(13.453674%, 66.265869%, 60.083008%)" offset="0.269531"/><stop stop-opacity="1" stop-color="rgb(13.671875%, 66.38031%, 59.925842%)" offset="0.273438"/><stop stop-opacity="1" stop-color="rgb(13.890076%, 66.494751%, 59.767151%)" offset="0.277344"/><stop stop-opacity="1" stop-color="rgb(14.109802%, 66.609192%, 59.609985%)" offset="0.28125"/><stop stop-opacity="1" stop-color="rgb(14.328003%, 66.723633%, 59.451294%)" offset="0.285156"/><stop stop-opacity="1" stop-color="rgb(14.546204%, 66.838074%, 59.294128%)" offset="0.289062"/><stop stop-opacity="1" stop-color="rgb(14.764404%, 66.952515%, 59.135437%)" offset="0.292969"/><stop stop-opacity="1" stop-color="rgb(14.984131%, 67.066956%, 58.978271%)" offset="0.296875"/><stop stop-opacity="1" stop-color="rgb(15.202332%, 67.181396%, 58.821106%)" offset="0.300781"/><stop stop-opacity="1" stop-color="rgb(15.420532%, 67.295837%, 58.66394%)" offset="0.304688"/><stop stop-opacity="1" stop-color="rgb(15.638733%, 67.410278%, 58.505249%)" offset="0.308594"/><stop stop-opacity="1" stop-color="rgb(15.856934%, 67.526245%, 58.348083%)" offset="0.3125"/><stop stop-opacity="1" stop-color="rgb(16.075134%, 67.640686%, 58.189392%)" offset="0.316406"/><stop stop-opacity="1" stop-color="rgb(16.294861%, 67.755127%, 58.032227%)" offset="0.320312"/><stop stop-opacity="1" stop-color="rgb(16.513062%, 67.869568%, 57.873535%)" offset="0.324219"/><stop stop-opacity="1" stop-color="rgb(16.731262%, 67.984009%, 57.71637%)" offset="0.328125"/><stop stop-opacity="1" stop-color="rgb(16.949463%, 68.09845%, 57.557678%)" offset="0.332031"/><stop stop-opacity="1" stop-color="rgb(17.169189%, 68.212891%, 57.400513%)" offset="0.335938"/><stop stop-opacity="1" stop-color="rgb(17.38739%, 68.327332%, 57.241821%)" offset="0.339844"/><stop stop-opacity="1" stop-color="rgb(17.605591%, 68.441772%, 57.084656%)" offset="0.34375"/><stop stop-opacity="1" stop-color="rgb(17.823792%, 68.556213%, 56.925964%)" offset="0.347656"/><stop stop-opacity="1" stop-color="rgb(18.043518%, 68.670654%, 56.768799%)" offset="0.351562"/><stop stop-opacity="1" stop-color="rgb(18.261719%, 68.785095%, 56.611633%)" offset="0.355469"/><stop stop-opacity="1" stop-color="rgb(18.479919%, 68.899536%, 56.454468%)" offset="0.359375"/><stop stop-opacity="1" stop-color="rgb(18.69812%, 69.013977%, 56.295776%)" offset="0.363281"/><stop stop-opacity="1" stop-color="rgb(18.917847%, 69.128418%, 56.138611%)" offset="0.367188"/><stop stop-opacity="1" stop-color="rgb(19.136047%, 69.242859%, 55.979919%)" offset="0.371094"/><stop stop-opacity="1" stop-color="rgb(19.354248%, 69.3573%, 55.822754%)" offset="0.375"/><stop stop-opacity="1" stop-color="rgb(19.572449%, 69.471741%, 55.664062%)" offset="0.378906"/><stop stop-opacity="1" stop-color="rgb(19.792175%, 69.586182%, 55.506897%)" offset="0.382812"/><stop stop-opacity="1" stop-color="rgb(20.010376%, 69.700623%, 55.348206%)" offset="0.386719"/><stop stop-opacity="1" stop-color="rgb(20.228577%, 69.815063%, 55.19104%)" offset="0.390625"/><stop stop-opacity="1" stop-color="rgb(20.446777%, 69.929504%, 55.032349%)" offset="0.394531"/><stop stop-opacity="1" stop-color="rgb(20.664978%, 70.043945%, 54.875183%)" offset="0.398438"/><stop stop-opacity="1" stop-color="rgb(20.883179%, 70.158386%, 54.716492%)" offset="0.402344"/><stop stop-opacity="1" stop-color="rgb(21.102905%, 70.272827%, 54.559326%)" offset="0.40625"/><stop stop-opacity="1" stop-color="rgb(21.321106%, 70.387268%, 54.402161%)" offset="0.410156"/><stop stop-opacity="1" stop-color="rgb(21.539307%, 70.501709%, 54.244995%)" offset="0.414062"/><stop stop-opacity="1" stop-color="rgb(21.757507%, 70.61615%, 54.086304%)" offset="0.417969"/><stop stop-opacity="1" stop-color="rgb(21.977234%, 70.730591%, 53.929138%)" offset="0.421875"/><stop stop-opacity="1" stop-color="rgb(22.195435%, 70.845032%, 53.770447%)" offset="0.425781"/><stop stop-opacity="1" stop-color="rgb(22.413635%, 70.959473%, 53.613281%)" offset="0.429688"/><stop stop-opacity="1" stop-color="rgb(22.631836%, 71.073914%, 53.45459%)" offset="0.433594"/><stop stop-opacity="1" stop-color="rgb(22.851562%, 71.188354%, 53.297424%)" offset="0.4375"/><stop stop-opacity="1" stop-color="rgb(23.069763%, 71.302795%, 53.138733%)" offset="0.441406"/><stop stop-opacity="1" stop-color="rgb(23.287964%, 71.417236%, 52.981567%)" offset="0.445312"/><stop stop-opacity="1" stop-color="rgb(23.506165%, 71.531677%, 52.822876%)" offset="0.449219"/><stop stop-opacity="1" stop-color="rgb(23.725891%, 71.646118%, 52.66571%)" offset="0.453125"/><stop stop-opacity="1" stop-color="rgb(23.944092%, 71.760559%, 52.507019%)" offset="0.457031"/><stop stop-opacity="1" stop-color="rgb(24.162292%, 71.875%, 52.349854%)" offset="0.460938"/><stop stop-opacity="1" stop-color="rgb(24.380493%, 71.989441%, 52.192688%)" offset="0.464844"/><stop stop-opacity="1" stop-color="rgb(24.60022%, 72.103882%, 52.035522%)" offset="0.46875"/><stop stop-opacity="1" stop-color="rgb(24.81842%, 72.218323%, 51.876831%)" offset="0.472656"/><stop stop-opacity="1" stop-color="rgb(25.036621%, 72.332764%, 51.719666%)" offset="0.476562"/><stop stop-opacity="1" stop-color="rgb(25.254822%, 72.447205%, 51.560974%)" offset="0.480469"/><stop stop-opacity="1" stop-color="rgb(25.474548%, 72.561646%, 51.403809%)" offset="0.484375"/><stop stop-opacity="1" stop-color="rgb(25.692749%, 72.676086%, 51.245117%)" offset="0.488281"/><stop stop-opacity="1" stop-color="rgb(25.91095%, 72.792053%, 51.087952%)" offset="0.492188"/><stop stop-opacity="1" stop-color="rgb(26.12915%, 72.906494%, 50.92926%)" offset="0.496094"/><stop stop-opacity="1" stop-color="rgb(26.347351%, 73.020935%, 50.772095%)" offset="0.5"/><stop stop-opacity="1" stop-color="rgb(26.565552%, 73.135376%, 50.613403%)" offset="0.503906"/><stop stop-opacity="1" stop-color="rgb(26.785278%, 73.249817%, 50.456238%)" offset="0.507812"/><stop stop-opacity="1" stop-color="rgb(27.003479%, 73.364258%, 50.297546%)" offset="0.511719"/><stop stop-opacity="1" stop-color="rgb(27.22168%, 73.478699%, 50.140381%)" offset="0.515625"/><stop stop-opacity="1" stop-color="rgb(27.43988%, 73.59314%, 49.981689%)" offset="0.519531"/><stop stop-opacity="1" stop-color="rgb(27.659607%, 73.707581%, 49.824524%)" offset="0.523438"/><stop stop-opacity="1" stop-color="rgb(27.877808%, 73.822021%, 49.667358%)" offset="0.527344"/><stop stop-opacity="1" stop-color="rgb(28.096008%, 73.936462%, 49.510193%)" offset="0.53125"/><stop stop-opacity="1" stop-color="rgb(28.314209%, 74.050903%, 49.351501%)" offset="0.535156"/><stop stop-opacity="1" stop-color="rgb(28.533936%, 74.165344%, 49.194336%)" offset="0.539062"/><stop stop-opacity="1" stop-color="rgb(28.752136%, 74.279785%, 49.035645%)" offset="0.542969"/><stop stop-opacity="1" stop-color="rgb(28.970337%, 74.394226%, 48.878479%)" offset="0.546875"/><stop stop-opacity="1" stop-color="rgb(29.188538%, 74.508667%, 48.719788%)" offset="0.550781"/><stop stop-opacity="1" stop-color="rgb(29.408264%, 74.623108%, 48.562622%)" offset="0.554688"/><stop stop-opacity="1" stop-color="rgb(29.626465%, 74.737549%, 48.403931%)" offset="0.558594"/><stop stop-opacity="1" stop-color="rgb(29.844666%, 74.85199%, 48.246765%)" offset="0.5625"/><stop stop-opacity="1" stop-color="rgb(30.062866%, 74.966431%, 48.088074%)" offset="0.566406"/><stop stop-opacity="1" stop-color="rgb(30.282593%, 75.080872%, 47.930908%)" offset="0.570312"/><stop stop-opacity="1" stop-color="rgb(30.500793%, 75.195312%, 47.772217%)" offset="0.574219"/><stop stop-opacity="1" stop-color="rgb(30.718994%, 75.309753%, 47.615051%)" offset="0.578125"/><stop stop-opacity="1" stop-color="rgb(30.937195%, 75.424194%, 47.457886%)" offset="0.582031"/><stop stop-opacity="1" stop-color="rgb(31.156921%, 75.538635%, 47.30072%)" offset="0.585938"/><stop stop-opacity="1" stop-color="rgb(31.375122%, 75.653076%, 47.142029%)" offset="0.589844"/><stop stop-opacity="1" stop-color="rgb(31.593323%, 75.767517%, 46.984863%)" offset="0.59375"/><stop stop-opacity="1" stop-color="rgb(31.811523%, 75.881958%, 46.826172%)" offset="0.597656"/><stop stop-opacity="1" stop-color="rgb(32.029724%, 75.996399%, 46.669006%)" offset="0.601562"/><stop stop-opacity="1" stop-color="rgb(32.247925%, 76.11084%, 46.510315%)" offset="0.605469"/><stop stop-opacity="1" stop-color="rgb(32.467651%, 76.225281%, 46.353149%)" offset="0.609375"/><stop stop-opacity="1" stop-color="rgb(32.685852%, 76.339722%, 46.194458%)" offset="0.613281"/><stop stop-opacity="1" stop-color="rgb(32.904053%, 76.454163%, 46.037292%)" offset="0.617188"/><stop stop-opacity="1" stop-color="rgb(33.122253%, 76.568604%, 45.878601%)" offset="0.621094"/><stop stop-opacity="1" stop-color="rgb(33.34198%, 76.683044%, 45.721436%)" offset="0.625"/><stop stop-opacity="1" stop-color="rgb(33.560181%, 76.797485%, 45.562744%)" offset="0.628906"/><stop stop-opacity="1" stop-color="rgb(33.778381%, 76.911926%, 45.405579%)" offset="0.632812"/><stop stop-opacity="1" stop-color="rgb(33.996582%, 77.026367%, 45.248413%)" offset="0.636719"/><stop stop-opacity="1" stop-color="rgb(34.216309%, 77.140808%, 45.091248%)" offset="0.640625"/><stop stop-opacity="1" stop-color="rgb(34.434509%, 77.255249%, 44.932556%)" offset="0.644531"/><stop stop-opacity="1" stop-color="rgb(34.65271%, 77.36969%, 44.775391%)" offset="0.648438"/><stop stop-opacity="1" stop-color="rgb(34.870911%, 77.484131%, 44.616699%)" offset="0.652344"/><stop stop-opacity="1" stop-color="rgb(35.090637%, 77.598572%, 44.459534%)" offset="0.65625"/><stop stop-opacity="1" stop-color="rgb(35.308838%, 77.713013%, 44.300842%)" offset="0.660156"/><stop stop-opacity="1" stop-color="rgb(35.527039%, 77.827454%, 44.143677%)" offset="0.664062"/><stop stop-opacity="1" stop-color="rgb(35.745239%, 77.941895%, 43.984985%)" offset="0.667969"/><stop stop-opacity="1" stop-color="rgb(35.964966%, 78.056335%, 43.82782%)" offset="0.671875"/><stop stop-opacity="1" stop-color="rgb(36.183167%, 78.170776%, 43.669128%)" offset="0.675781"/><stop stop-opacity="1" stop-color="rgb(36.401367%, 78.286743%, 43.511963%)" offset="0.679688"/><stop stop-opacity="1" stop-color="rgb(36.619568%, 78.401184%, 43.353271%)" offset="0.683594"/><stop stop-opacity="1" stop-color="rgb(36.839294%, 78.515625%, 43.196106%)" offset="0.6875"/><stop stop-opacity="1" stop-color="rgb(37.057495%, 78.630066%, 43.03894%)" offset="0.691406"/><stop stop-opacity="1" stop-color="rgb(37.275696%, 78.744507%, 42.881775%)" offset="0.695312"/><stop stop-opacity="1" stop-color="rgb(37.493896%, 78.858948%, 42.723083%)" offset="0.699219"/><stop stop-opacity="1" stop-color="rgb(37.712097%, 78.973389%, 42.565918%)" offset="0.703125"/><stop stop-opacity="1" stop-color="rgb(37.930298%, 79.08783%, 42.407227%)" offset="0.707031"/><stop stop-opacity="1" stop-color="rgb(38.150024%, 79.202271%, 42.250061%)" offset="0.710938"/><stop stop-opacity="1" stop-color="rgb(38.368225%, 79.316711%, 42.09137%)" offset="0.714844"/><stop stop-opacity="1" stop-color="rgb(38.586426%, 79.431152%, 41.934204%)" offset="0.71875"/><stop stop-opacity="1" stop-color="rgb(38.804626%, 79.545593%, 41.775513%)" offset="0.722656"/><stop stop-opacity="1" stop-color="rgb(39.024353%, 79.660034%, 41.618347%)" offset="0.726562"/><stop stop-opacity="1" stop-color="rgb(39.242554%, 79.774475%, 41.459656%)" offset="0.730469"/><stop stop-opacity="1" stop-color="rgb(39.460754%, 79.888916%, 41.30249%)" offset="0.734375"/><stop stop-opacity="1" stop-color="rgb(39.678955%, 80.003357%, 41.143799%)" offset="0.738281"/><stop stop-opacity="1" stop-color="rgb(39.898682%, 80.117798%, 40.986633%)" offset="0.742188"/><stop stop-opacity="1" stop-color="rgb(40.116882%, 80.232239%, 40.829468%)" offset="0.746094"/><stop stop-opacity="1" stop-color="rgb(40.335083%, 80.34668%, 40.672302%)" offset="0.75"/><stop stop-opacity="1" stop-color="rgb(40.553284%, 80.461121%, 40.513611%)" offset="0.753906"/><stop stop-opacity="1" stop-color="rgb(40.77301%, 80.575562%, 40.356445%)" offset="0.757812"/><stop stop-opacity="1" stop-color="rgb(40.991211%, 80.690002%, 40.197754%)" offset="0.761719"/><stop stop-opacity="1" stop-color="rgb(41.209412%, 80.804443%, 40.040588%)" offset="0.765625"/><stop stop-opacity="1" stop-color="rgb(41.427612%, 80.918884%, 39.881897%)" offset="0.769531"/><stop stop-opacity="1" stop-color="rgb(41.647339%, 81.033325%, 39.724731%)" offset="0.773438"/><stop stop-opacity="1" stop-color="rgb(41.86554%, 81.147766%, 39.56604%)" offset="0.777344"/><stop stop-opacity="1" stop-color="rgb(42.08374%, 81.262207%, 39.408875%)" offset="0.78125"/><stop stop-opacity="1" stop-color="rgb(42.301941%, 81.376648%, 39.250183%)" offset="0.785156"/><stop stop-opacity="1" stop-color="rgb(42.520142%, 81.491089%, 39.093018%)" offset="0.789062"/><stop stop-opacity="1" stop-color="rgb(42.738342%, 81.60553%, 38.934326%)" offset="0.792969"/><stop stop-opacity="1" stop-color="rgb(42.958069%, 81.719971%, 38.777161%)" offset="0.796875"/><stop stop-opacity="1" stop-color="rgb(43.17627%, 81.834412%, 38.619995%)" offset="0.800781"/><stop stop-opacity="1" stop-color="rgb(43.39447%, 81.948853%, 38.46283%)" offset="0.804688"/><stop stop-opacity="1" stop-color="rgb(43.612671%, 82.063293%, 38.304138%)" offset="0.808594"/><stop stop-opacity="1" stop-color="rgb(43.832397%, 82.177734%, 38.146973%)" offset="0.8125"/><stop stop-opacity="1" stop-color="rgb(44.050598%, 82.292175%, 37.988281%)" offset="0.816406"/><stop stop-opacity="1" stop-color="rgb(44.268799%, 82.406616%, 37.831116%)" offset="0.820312"/><stop stop-opacity="1" stop-color="rgb(44.487%, 82.521057%, 37.672424%)" offset="0.824219"/><stop stop-opacity="1" stop-color="rgb(44.706726%, 82.635498%, 37.515259%)" offset="0.828125"/><stop stop-opacity="1" stop-color="rgb(44.924927%, 82.749939%, 37.356567%)" offset="0.832031"/><stop stop-opacity="1" stop-color="rgb(45.143127%, 82.86438%, 37.199402%)" offset="0.835938"/><stop stop-opacity="1" stop-color="rgb(45.361328%, 82.978821%, 37.04071%)" offset="0.839844"/><stop stop-opacity="1" stop-color="rgb(45.581055%, 83.093262%, 36.883545%)" offset="0.84375"/><stop stop-opacity="1" stop-color="rgb(45.799255%, 83.207703%, 36.724854%)" offset="0.847656"/><stop stop-opacity="1" stop-color="rgb(46.017456%, 83.322144%, 36.567688%)" offset="0.851562"/><stop stop-opacity="1" stop-color="rgb(46.235657%, 83.436584%, 36.410522%)" offset="0.855469"/><stop stop-opacity="1" stop-color="rgb(46.455383%, 83.551025%, 36.253357%)" offset="0.859375"/><stop stop-opacity="1" stop-color="rgb(46.673584%, 83.665466%, 36.094666%)" offset="0.863281"/><stop stop-opacity="1" stop-color="rgb(46.891785%, 83.781433%, 35.9375%)" offset="0.867188"/><stop stop-opacity="1" stop-color="rgb(47.109985%, 83.895874%, 35.778809%)" offset="0.871094"/><stop stop-opacity="1" stop-color="rgb(47.329712%, 84.010315%, 35.621643%)" offset="0.875"/><stop stop-opacity="1" stop-color="rgb(47.547913%, 84.124756%, 35.462952%)" offset="0.878906"/><stop stop-opacity="1" stop-color="rgb(47.766113%, 84.239197%, 35.305786%)" offset="0.882812"/><stop stop-opacity="1" stop-color="rgb(47.984314%, 84.353638%, 35.147095%)" offset="0.886719"/><stop stop-opacity="1" stop-color="rgb(48.202515%, 84.468079%, 34.989929%)" offset="0.890625"/><stop stop-opacity="1" stop-color="rgb(48.420715%, 84.58252%, 34.831238%)" offset="0.894531"/><stop stop-opacity="1" stop-color="rgb(48.640442%, 84.69696%, 34.674072%)" offset="0.898437"/><stop stop-opacity="1" stop-color="rgb(48.858643%, 84.811401%, 34.515381%)" offset="0.902344"/><stop stop-opacity="1" stop-color="rgb(49.076843%, 84.925842%, 34.358215%)" offset="0.90625"/><stop stop-opacity="1" stop-color="rgb(49.243164%, 85.012817%, 34.237671%)" offset="0.9375"/><stop stop-opacity="1" stop-color="rgb(49.409485%, 85.099792%, 34.118652%)" offset="1"/></linearGradient><clipPath id="32834a3868"><rect x="0" width="1500" y="0" height="1500"/></clipPath><clipPath id="1c76ba6a0c"><rect x="0" width="1500" y="0" height="1500"/></clipPath><clipPath id="a31dbfd7be"><rect x="0" width="1500" y="0" height="1500"/></clipPath><mask id="16bbfd327c"><g filter="url(#96bc21e0e2)"><g transform="matrix(1, 0, 0, 1, 0, 0.000000000000112861)"><g clip-path="url(#a31dbfd7be)"><g transform="matrix(1, 0, 0, 1, 0, 0.000000000000112861)"><g clip-path="url(#1c76ba6a0c)"><g fill="#000000" fill-opacity="1"><g transform="translate(44.476081, 1145.36913)"><g><path d="M 503.609375 238.921875 C 489.296875 241.785156 478.328125 237.972656 470.703125 227.484375 C 464.023438 218.898438 458.300781 209.835938 453.53125 200.296875 C 448.757812 190.753906 445.421875 180.738281 443.515625 170.25 C 437.785156 146.40625 434.441406 123.035156 433.484375 100.140625 C 432.535156 77.253906 433.492188 53.890625 436.359375 30.046875 C 445.898438 -47.210938 459.015625 -123.753906 475.703125 -199.578125 C 492.390625 -275.410156 510.75 -351 530.78125 -426.34375 C 531.738281 -431.113281 532.929688 -435.644531 534.359375 -439.9375 C 535.785156 -444.226562 536.976562 -448.28125 537.9375 -452.09375 C 538.894531 -458.769531 536.035156 -462.109375 529.359375 -462.109375 L 433.5 -462.109375 C 427.78125 -461.160156 421.816406 -460.445312 415.609375 -459.96875 C 409.410156 -459.488281 402.972656 -459.726562 396.296875 -460.6875 C 388.671875 -460.6875 382.472656 -456.394531 377.703125 -447.8125 C 373.890625 -439.21875 369.835938 -430.628906 365.546875 -422.046875 C 361.253906 -413.460938 356.722656 -405.359375 351.953125 -397.734375 C 333.828125 -362.441406 315.222656 -327.625 296.140625 -293.28125 C 277.066406 -258.945312 257.992188 -225.09375 238.921875 -191.71875 C 229.390625 -176.457031 219.851562 -161.195312 210.3125 -145.9375 C 200.769531 -130.675781 190.753906 -115.410156 180.265625 -100.140625 C 173.585938 -91.554688 166.671875 -83.210938 159.515625 -75.109375 C 152.367188 -67.003906 144.976562 -59.132812 137.34375 -51.5 C 126.851562 -41.007812 114.929688 -31.953125 101.578125 -24.328125 C 94.898438 -20.503906 87.507812 -18.351562 79.40625 -17.875 C 71.300781 -17.40625 62.953125 -17.644531 54.359375 -18.59375 C 46.734375 -20.5 40.0625 -24.789062 34.34375 -31.46875 C 15.257812 -55.320312 4.289062 -81.550781 1.4375 -110.15625 C -0.476562 -114.925781 -0.00390625 -118.742188 2.859375 -121.609375 C 2.859375 -122.566406 3.8125 -123.046875 5.71875 -123.046875 C 7.625 -123.046875 9.054688 -122.566406 10.015625 -121.609375 L 10.015625 -117.3125 C 11.921875 -103.957031 15.492188 -91.082031 20.734375 -78.6875 C 25.984375 -66.289062 32.425781 -54.367188 40.0625 -42.921875 C 49.59375 -30.523438 56.984375 -23.847656 62.234375 -22.890625 C 67.484375 -21.929688 76.304688 -24.789062 88.703125 -31.46875 C 96.328125 -36.238281 103.476562 -41.484375 110.15625 -47.203125 C 116.832031 -52.929688 123.035156 -59.132812 128.765625 -65.8125 C 142.117188 -79.164062 153.800781 -93.472656 163.8125 -108.734375 C 173.820312 -123.992188 183.597656 -139.253906 193.140625 -154.515625 C 213.171875 -186.941406 232.242188 -220.082031 250.359375 -253.9375 C 268.484375 -287.800781 286.609375 -321.425781 304.734375 -354.8125 C 312.367188 -369.113281 319.757812 -383.179688 326.90625 -397.015625 C 334.0625 -410.847656 340.976562 -424.441406 347.65625 -437.796875 L 351.953125 -447.8125 C 355.765625 -454.476562 352.898438 -457.8125 343.359375 -457.8125 L 339.078125 -457.8125 C 314.273438 -456.863281 289.472656 -455.910156 264.671875 -454.953125 C 239.878906 -454.003906 215.082031 -452.578125 190.28125 -450.671875 C 179.789062 -449.710938 169.296875 -448.753906 158.796875 -447.796875 C 148.304688 -446.847656 137.816406 -445.421875 127.328125 -443.515625 L 114.453125 -443.515625 C 110.640625 -443.515625 108.734375 -444.945312 108.734375 -447.8125 C 108.734375 -451.625 109.6875 -453.53125 111.59375 -453.53125 C 114.457031 -455.4375 118.75 -457.34375 124.46875 -459.25 C 131.144531 -460.207031 137.582031 -461.398438 143.78125 -462.828125 C 149.976562 -464.253906 156.414062 -464.96875 163.09375 -464.96875 C 182.175781 -466.875 201.492188 -468.78125 221.046875 -470.6875 C 240.597656 -472.601562 260.390625 -474.035156 280.421875 -474.984375 L 353.375 -479.28125 C 362.914062 -479.28125 370.546875 -484.050781 376.265625 -493.59375 C 402.023438 -544.132812 428.492188 -593.726562 455.671875 -642.375 C 482.859375 -691.019531 509.800781 -739.664062 536.5 -788.3125 C 548.90625 -810.25 562.019531 -831.945312 575.84375 -853.40625 C 589.675781 -874.863281 604.222656 -895.609375 619.484375 -915.640625 C 624.253906 -921.359375 629.023438 -926.84375 633.796875 -932.09375 C 638.566406 -937.34375 643.332031 -942.828125 648.09375 -948.546875 C 651.914062 -952.359375 655.253906 -955.21875 658.109375 -957.125 C 665.742188 -961.894531 672.898438 -961.894531 679.578125 -957.125 C 681.484375 -956.175781 684.34375 -953.789062 688.15625 -949.96875 C 692.925781 -948.0625 695.3125 -943.769531 695.3125 -937.09375 C 696.269531 -926.601562 695.316406 -915.160156 692.453125 -902.765625 C 688.640625 -884.640625 684.347656 -866.992188 679.578125 -849.828125 C 674.804688 -832.660156 670.035156 -815.492188 665.265625 -798.328125 C 652.867188 -750.640625 639.753906 -702.472656 625.921875 -653.828125 C 612.097656 -605.179688 598.507812 -557.015625 585.15625 -509.328125 C 582.289062 -498.835938 581.570312 -492.632812 583 -490.71875 C 584.4375 -488.8125 590.875 -487.859375 602.3125 -487.859375 L 728.21875 -487.859375 C 737.757812 -488.816406 743.957031 -484.050781 746.8125 -473.5625 C 746.8125 -471.65625 747.289062 -469.269531 748.25 -466.40625 C 738.707031 -465.445312 724.160156 -464.726562 704.609375 -464.25 C 685.054688 -463.78125 670.035156 -463.546875 659.546875 -463.546875 C 647.148438 -462.585938 634.75 -462.109375 622.34375 -462.109375 C 609.945312 -462.109375 597.550781 -462.109375 585.15625 -462.109375 C 578.476562 -462.109375 574.660156 -461.628906 573.703125 -460.671875 C 572.753906 -459.722656 571.320312 -455.910156 569.40625 -449.234375 C 564.644531 -432.066406 560.117188 -414.898438 555.828125 -397.734375 C 551.535156 -380.566406 547.003906 -363.394531 542.234375 -346.21875 C 532.691406 -311.882812 524.101562 -277.550781 516.46875 -243.21875 C 508.84375 -208.882812 501.21875 -174.070312 493.59375 -138.78125 C 487.863281 -109.207031 482.613281 -79.875 477.84375 -50.78125 C 473.082031 -21.695312 469.269531 8.101562 466.40625 38.625 C 464.5 59.613281 463.78125 80.597656 464.25 101.578125 C 464.726562 122.554688 467.351562 143.539062 472.125 164.53125 C 474.988281 174.0625 478.085938 183.359375 481.421875 192.421875 C 484.765625 201.484375 489.296875 210.304688 495.015625 218.890625 C 497.878906 221.753906 500.265625 221.753906 502.171875 218.890625 C 505.035156 215.078125 509.328125 213.171875 515.046875 213.171875 C 519.816406 213.171875 522.203125 215.554688 522.203125 220.328125 C 520.296875 230.816406 514.097656 237.015625 503.609375 238.921875 Z M 402.015625 -482.140625 L 410.609375 -482.140625 C 417.285156 -483.097656 428.253906 -483.578125 443.515625 -483.578125 C 458.773438 -483.578125 474.035156 -483.8125 489.296875 -484.28125 C 504.554688 -484.757812 514.570312 -485 519.34375 -485 C 535.550781 -485.957031 544.609375 -486.910156 546.515625 -487.859375 C 548.429688 -488.816406 551.296875 -497.398438 555.109375 -513.609375 C 570.367188 -567.023438 585.628906 -620.203125 600.890625 -673.140625 C 616.148438 -726.078125 631.882812 -778.773438 648.09375 -831.234375 C 651.914062 -844.585938 655.734375 -857.9375 659.546875 -871.28125 C 663.359375 -884.632812 667.175781 -897.515625 671 -909.921875 L 675.28125 -935.671875 C 675.28125 -935.671875 675.28125 -936.144531 675.28125 -937.09375 C 675.28125 -938.050781 674.804688 -938.53125 673.859375 -938.53125 L 669.5625 -938.53125 C 658.113281 -928.039062 647.625 -916.59375 638.09375 -904.1875 C 610.425781 -868.90625 585.625 -831.234375 563.6875 -791.171875 C 536.976562 -743.484375 510.269531 -695.316406 483.5625 -646.671875 C 456.863281 -598.023438 430.640625 -549.378906 404.890625 -500.734375 C 403.929688 -498.828125 402.972656 -496.679688 402.015625 -494.296875 C 401.066406 -491.910156 400.113281 -489.765625 399.15625 -487.859375 C 398.207031 -485.953125 399.160156 -484.046875 402.015625 -482.140625 Z M 402.015625 -482.140625 "/></g></g></g><g fill="#000000" fill-opacity="1"><g transform="translate(706.880154, 1145.36913)"><g><path d="M 503.609375 238.921875 C 489.296875 241.785156 478.328125 237.972656 470.703125 227.484375 C 464.023438 218.898438 458.300781 209.835938 453.53125 200.296875 C 448.757812 190.753906 445.421875 180.738281 443.515625 170.25 C 437.785156 146.40625 434.441406 123.035156 433.484375 100.140625 C 432.535156 77.253906 433.492188 53.890625 436.359375 30.046875 C 445.898438 -47.210938 459.015625 -123.753906 475.703125 -199.578125 C 492.390625 -275.410156 510.75 -351 530.78125 -426.34375 C 531.738281 -431.113281 532.929688 -435.644531 534.359375 -439.9375 C 535.785156 -444.226562 536.976562 -448.28125 537.9375 -452.09375 C 538.894531 -458.769531 536.035156 -462.109375 529.359375 -462.109375 L 433.5 -462.109375 C 427.78125 -461.160156 421.816406 -460.445312 415.609375 -459.96875 C 409.410156 -459.488281 402.972656 -459.726562 396.296875 -460.6875 C 388.671875 -460.6875 382.472656 -456.394531 377.703125 -447.8125 C 373.890625 -439.21875 369.835938 -430.628906 365.546875 -422.046875 C 361.253906 -413.460938 356.722656 -405.359375 351.953125 -397.734375 C 333.828125 -362.441406 315.222656 -327.625 296.140625 -293.28125 C 277.066406 -258.945312 257.992188 -225.09375 238.921875 -191.71875 C 229.390625 -176.457031 219.851562 -161.195312 210.3125 -145.9375 C 200.769531 -130.675781 190.753906 -115.410156 180.265625 -100.140625 C 173.585938 -91.554688 166.671875 -83.210938 159.515625 -75.109375 C 152.367188 -67.003906 144.976562 -59.132812 137.34375 -51.5 C 126.851562 -41.007812 114.929688 -31.953125 101.578125 -24.328125 C 94.898438 -20.503906 87.507812 -18.351562 79.40625 -17.875 C 71.300781 -17.40625 62.953125 -17.644531 54.359375 -18.59375 C 46.734375 -20.5 40.0625 -24.789062 34.34375 -31.46875 C 15.257812 -55.320312 4.289062 -81.550781 1.4375 -110.15625 C -0.476562 -114.925781 -0.00390625 -118.742188 2.859375 -121.609375 C 2.859375 -122.566406 3.8125 -123.046875 5.71875 -123.046875 C 7.625 -123.046875 9.054688 -122.566406 10.015625 -121.609375 L 10.015625 -117.3125 C 11.921875 -103.957031 15.492188 -91.082031 20.734375 -78.6875 C 25.984375 -66.289062 32.425781 -54.367188 40.0625 -42.921875 C 49.59375 -30.523438 56.984375 -23.847656 62.234375 -22.890625 C 67.484375 -21.929688 76.304688 -24.789062 88.703125 -31.46875 C 96.328125 -36.238281 103.476562 -41.484375 110.15625 -47.203125 C 116.832031 -52.929688 123.035156 -59.132812 128.765625 -65.8125 C 142.117188 -79.164062 153.800781 -93.472656 163.8125 -108.734375 C 173.820312 -123.992188 183.597656 -139.253906 193.140625 -154.515625 C 213.171875 -186.941406 232.242188 -220.082031 250.359375 -253.9375 C 268.484375 -287.800781 286.609375 -321.425781 304.734375 -354.8125 C 312.367188 -369.113281 319.757812 -383.179688 326.90625 -397.015625 C 334.0625 -410.847656 340.976562 -424.441406 347.65625 -437.796875 L 351.953125 -447.8125 C 355.765625 -454.476562 352.898438 -457.8125 343.359375 -457.8125 L 339.078125 -457.8125 C 314.273438 -456.863281 289.472656 -455.910156 264.671875 -454.953125 C 239.878906 -454.003906 215.082031 -452.578125 190.28125 -450.671875 C 179.789062 -449.710938 169.296875 -448.753906 158.796875 -447.796875 C 148.304688 -446.847656 137.816406 -445.421875 127.328125 -443.515625 L 114.453125 -443.515625 C 110.640625 -443.515625 108.734375 -444.945312 108.734375 -447.8125 C 108.734375 -451.625 109.6875 -453.53125 111.59375 -453.53125 C 114.457031 -455.4375 118.75 -457.34375 124.46875 -459.25 C 131.144531 -460.207031 137.582031 -461.398438 143.78125 -462.828125 C 149.976562 -464.253906 156.414062 -464.96875 163.09375 -464.96875 C 182.175781 -466.875 201.492188 -468.78125 221.046875 -470.6875 C 240.597656 -472.601562 260.390625 -474.035156 280.421875 -474.984375 L 353.375 -479.28125 C 362.914062 -479.28125 370.546875 -484.050781 376.265625 -493.59375 C 402.023438 -544.132812 428.492188 -593.726562 455.671875 -642.375 C 482.859375 -691.019531 509.800781 -739.664062 536.5 -788.3125 C 548.90625 -810.25 562.019531 -831.945312 575.84375 -853.40625 C 589.675781 -874.863281 604.222656 -895.609375 619.484375 -915.640625 C 624.253906 -921.359375 629.023438 -926.84375 633.796875 -932.09375 C 638.566406 -937.34375 643.332031 -942.828125 648.09375 -948.546875 C 651.914062 -952.359375 655.253906 -955.21875 658.109375 -957.125 C 665.742188 -961.894531 672.898438 -961.894531 679.578125 -957.125 C 681.484375 -956.175781 684.34375 -953.789062 688.15625 -949.96875 C 692.925781 -948.0625 695.3125 -943.769531 695.3125 -937.09375 C 696.269531 -926.601562 695.316406 -915.160156 692.453125 -902.765625 C 688.640625 -884.640625 684.347656 -866.992188 679.578125 -849.828125 C 674.804688 -832.660156 670.035156 -815.492188 665.265625 -798.328125 C 652.867188 -750.640625 639.753906 -702.472656 625.921875 -653.828125 C 612.097656 -605.179688 598.507812 -557.015625 585.15625 -509.328125 C 582.289062 -498.835938 581.570312 -492.632812 583 -490.71875 C 584.4375 -488.8125 590.875 -487.859375 602.3125 -487.859375 L 728.21875 -487.859375 C 737.757812 -488.816406 743.957031 -484.050781 746.8125 -473.5625 C 746.8125 -471.65625 747.289062 -469.269531 748.25 -466.40625 C 738.707031 -465.445312 724.160156 -464.726562 704.609375 -464.25 C 685.054688 -463.78125 670.035156 -463.546875 659.546875 -463.546875 C 647.148438 -462.585938 634.75 -462.109375 622.34375 -462.109375 C 609.945312 -462.109375 597.550781 -462.109375 585.15625 -462.109375 C 578.476562 -462.109375 574.660156 -461.628906 573.703125 -460.671875 C 572.753906 -459.722656 571.320312 -455.910156 569.40625 -449.234375 C 564.644531 -432.066406 560.117188 -414.898438 555.828125 -397.734375 C 551.535156 -380.566406 547.003906 -363.394531 542.234375 -346.21875 C 532.691406 -311.882812 524.101562 -277.550781 516.46875 -243.21875 C 508.84375 -208.882812 501.21875 -174.070312 493.59375 -138.78125 C 487.863281 -109.207031 482.613281 -79.875 477.84375 -50.78125 C 473.082031 -21.695312 469.269531 8.101562 466.40625 38.625 C 464.5 59.613281 463.78125 80.597656 464.25 101.578125 C 464.726562 122.554688 467.351562 143.539062 472.125 164.53125 C 474.988281 174.0625 478.085938 183.359375 481.421875 192.421875 C 484.765625 201.484375 489.296875 210.304688 495.015625 218.890625 C 497.878906 221.753906 500.265625 221.753906 502.171875 218.890625 C 505.035156 215.078125 509.328125 213.171875 515.046875 213.171875 C 519.816406 213.171875 522.203125 215.554688 522.203125 220.328125 C 520.296875 230.816406 514.097656 237.015625 503.609375 238.921875 Z M 402.015625 -482.140625 L 410.609375 -482.140625 C 417.285156 -483.097656 428.253906 -483.578125 443.515625 -483.578125 C 458.773438 -483.578125 474.035156 -483.8125 489.296875 -484.28125 C 504.554688 -484.757812 514.570312 -485 519.34375 -485 C 535.550781 -485.957031 544.609375 -486.910156 546.515625 -487.859375 C 548.429688 -488.816406 551.296875 -497.398438 555.109375 -513.609375 C 570.367188 -567.023438 585.628906 -620.203125 600.890625 -673.140625 C 616.148438 -726.078125 631.882812 -778.773438 648.09375 -831.234375 C 651.914062 -844.585938 655.734375 -857.9375 659.546875 -871.28125 C 663.359375 -884.632812 667.175781 -897.515625 671 -909.921875 L 675.28125 -935.671875 C 675.28125 -935.671875 675.28125 -936.144531 675.28125 -937.09375 C 675.28125 -938.050781 674.804688 -938.53125 673.859375 -938.53125 L 669.5625 -938.53125 C 658.113281 -928.039062 647.625 -916.59375 638.09375 -904.1875 C 610.425781 -868.90625 585.625 -831.234375 563.6875 -791.171875 C 536.976562 -743.484375 510.269531 -695.316406 483.5625 -646.671875 C 456.863281 -598.023438 430.640625 -549.378906 404.890625 -500.734375 C 403.929688 -498.828125 402.972656 -496.679688 402.015625 -494.296875 C 401.066406 -491.910156 400.113281 -489.765625 399.15625 -487.859375 C 398.207031 -485.953125 399.160156 -484.046875 402.015625 -482.140625 Z M 402.015625 -482.140625 "/></g></g></g></g></g></g></g></g></mask><clipPath id="c246f3f001"><path d="M 0 0 L 1500 0 L 1500 1500 L 0 1500 Z M 0 0 " clip-rule="nonzero"/></clipPath><clipPath id="3a7f9b518c"><rect x="0" width="1500" y="0" height="1500"/></clipPath><clipPath id="0b6e8429cc"><rect x="0" width="1500" y="0" height="1500"/></clipPath><clipPath id="2a19363cc5"><rect x="0" width="1500" y="0" height="1500"/></clipPath></defs><g clip-path="url(#65cf21dd24)"><g clip-path="url(#1e3379f19f)"><g transform="matrix(1, 0, 0, 1, 30, 30)"><g clip-path="url(#a555481003)"><g clip-path="url(#2213077e99)"><g clip-path="url(#68336b3d1e)"><path fill="#000000" d="M 0.976562 0.976562 L 1440.839844 0.976562 L 1440.839844 1440.839844 L 0.976562 1440.839844 Z M 0.976562 0.976562 " fill-opacity="1" fill-rule="nonzero"/></g></g></g></g></g></g><g transform="matrix(1, 0, 0, 1, 0, 0.000000000000112861)"><g clip-path="url(#2a19363cc5)"><g transform="matrix(1, 0, 0, 1, 0, 0.000000000000112861)"><g clip-path="url(#0b6e8429cc)"><g mask="url(#16bbfd327c)"><g transform="matrix(1, 0, 0, 1, 0, 0.000000000000112861)"><g clip-path="url(#3a7f9b518c)"><g clip-path="url(#c246f3f001)"><rect x="-805.2" fill="url(#8146991ea4)" width="3110.4" height="3110.399862" y="-805.199964"/></g></g></g></g></g></g></g></g></svg>